<svg xmlns="http://www.w3.org/2000/svg" width="64" height="64" viewBox="0 0 64 64">
  <defs>
    <linearGradient id="mr-core" x1="0" y1="0" x2="1" y2="1">
      <stop offset="0%" stop-color="#60a5fa" />
      <stop offset="100%" stop-color="#2563eb" />
    </linearGradient>
    <linearGradient id="mr-orbit" x1="0" y1="0" x2="1" y2="1">
      <stop offset="0%" stop-color="#94a3b8" />
      <stop offset="100%" stop-color="#cbd5e1" />
    </linearGradient>
  </defs>
  <!-- Stylized M -->
  <path d="M12 44 L12 22 L20 34 L28 22 L28 44" fill="none" stroke="#0f172a" stroke-width="3" stroke-linecap="round" stroke-linejoin="round"/>
  <!-- Stylized R -->
  <path d="M36 22 L50 22 C56 22 56 32 50 32 L36 32 L50 44" fill="none" stroke="#0f172a" stroke-width="3" stroke-linecap="round" stroke-linejoin="round"/>
  <!-- Core planet -->
  <circle cx="32" cy="32" r="6.5" fill="url(#mr-core)"/>
  <!-- Orbit rings -->
  <path d="M8 30 C20 20 44 20 56 30" fill="none" stroke="url(#mr-orbit)" stroke-width="2"/>
  <path d="M8 34 C20 44 44 44 56 34" fill="none" stroke="url(#mr-orbit)" stroke-width="2"/>
  <!-- Star -->
  <path d="M48 18 l2 4 l4 2 l-4 2 l-2 4 l-2 -4 l-4 -2 l4 -2 z" fill="#2563eb"/>
</svg>


